Ostrich_Running_Kinematics
version=1
nRows=25
nColumns=28
inDegrees=no
endheader
time	/jointset/pelvis/pelvis_tilt/value	/jointset/pelvis/pelvis_list/value	/jointset/pelvis/pelvis_rotation/value	/jointset/pelvis/pelvis_tx/value	/jointset/pelvis/pelvis_ty/value	/jointset/pelvis/pelvis_tz/value	/jointset/R_hip/R_hip_extension/value	/jointset/R_hip/R_hip_abduction/value	/jointset/R_hip/R_hip_rotation/value	/jointset/knee/R_knee_angle/value	/jointset/knee/R_knee_varus/value	/jointset/knee/R_knee_rotation/value	/jointset/R_ankle/R_ankle_angle/value	/jointset/R_ankle/R_ankle_abduction/value	/jointset/R_ankle/R_ankle_rotation/value	/jointset/R_mtp/R_mtp_angle/value	/jointset/R_mtp/R_mtp_abduction/value	/jointset/R_mtp/R_mtp_rotation/value	/jointset/L_hip/L_hip_extension/value	/jointset/L_hip/L_hip_abduction/value	/jointset/L_hip/L_hip_rotation/value	/jointset/knee_0/L_knee_angle/value	/jointset/knee_0/L_knee_varus/value	/jointset/knee_0/L_knee_rotation/value	/jointset/L_ankle/L_ankle_angle/value	/jointset/L_ankle/L_ankle_abduction/value	/jointset/L_mtp/L_mtp_angle/value
     -0.03500000	      0.25514387	      0.11351272	     -0.01307957	     -0.07277167	      0.93282490	     -0.84796142	      0.94953242	     -0.18848858	     -0.43142445	     -2.25500030	     -0.34757534	     -0.36207728	      1.85804262	     -0.01009900	     -0.34569387	     -2.57896832	     -0.26354821	     -0.05213770	      1.19403210	     -0.39166934	     -0.45319801	     -1.71647314	     -0.30035371	     -0.14835706	      0.21038199	      0.05880014	     -0.29317459
     -0.03100000	      0.25692410	      0.10537530	     -0.01298484	     -0.05955517	      0.93496767	     -0.84829484	      0.94896414	     -0.18641233	     -0.43655851	     -2.23423786	     -0.34841868	     -0.35788151	      1.85534783	     -0.00255946	     -0.34918733	     -2.56844049	     -0.26779704	     -0.05155169	      1.19067409	     -0.39159952	     -0.45630470	     -1.72554885	     -0.30565253	     -0.15122708	      0.21078690	      0.05745973	     -0.29450802
     -0.02700000	      0.25870434	      0.09723788	     -0.01289012	     -0.04633868	      0.93693959	     -0.84862827	      0.94839586	     -0.18433609	     -0.44169257	     -2.21347543	     -0.34926203	     -0.35368574	      1.85265304	      0.00498009	     -0.35268078	     -2.55791266	     -0.27204587	     -0.05096567	      1.18731607	     -0.39152971	     -0.45941138	     -1.73462457	     -0.31095135	     -0.15409710	      0.21119182	      0.05611932	     -0.29584145
     -0.02300000	      0.26048457	      0.08910045	     -0.01279540	     -0.03312218	      0.93735749	     -0.84896169	      0.94782758	     -0.18225985	     -0.44682663	     -2.19271299	     -0.35010537	     -0.34948997	      1.84995825	      0.01251963	     -0.35617423	     -2.54738484	     -0.27629470	     -0.05037966	      1.18395806	     -0.39145990	     -0.46251807	     -1.74370028	     -0.31625017	     -0.15696712	      0.21159674	      0.05477890	     -0.29717488
     -0.01900000	      0.26226481	      0.08096303	     -0.01270068	     -0.01990569	      0.94037650	     -0.84929512	      0.94725930	     -0.18018360	     -0.45196069	     -2.17195055	     -0.35094871	     -0.34529419	      1.84726346	      0.02005917	     -0.35966768	     -2.53685701	     -0.28054353	     -0.04979365	      1.18060005	     -0.39139008	     -0.46562476	     -1.75277599	     -0.32154899	     -0.15983714	      0.21200165	      0.05343849	     -0.29850832
     -0.01500000	      0.26404504	      0.07282561	     -0.01260595	     -0.00668919	      0.94184461	     -0.84962854	      0.94669102	     -0.17810736	     -0.45709475	     -2.15118812	     -0.35179205	     -0.34109842	      1.84456867	      0.02759872	     -0.36316113	     -2.52632919	     -0.28479236	     -0.04920764	      1.17724203	     -0.39132027	     -0.46873144	     -1.76185170	     -0.32684781	     -0.16270716	      0.21240657	      0.05209808	     -0.29984175
     -0.01100000	      0.26582528	      0.06468819	     -0.01251123	      0.00652731	      0.94314810	     -0.84996196	      0.94612274	     -0.17603112	     -0.46222881	     -2.13042568	     -0.35263540	     -0.33690265	      1.84187388	      0.03513826	     -0.36665458	     -2.51580136	     -0.28904118	     -0.04862163	      1.17388402	     -0.39125046	     -0.47183813	     -1.77092741	     -0.33214663	     -0.16557718	      0.21281149	      0.05075767	     -0.30117518
     -0.00700000	      0.26760552	      0.05655076	     -0.01241651	      0.01974380	      0.94480799	     -0.85029539	      0.94555446	     -0.17395487	     -0.46736287	     -2.10966324	     -0.35347874	     -0.33270688	      1.83917910	      0.04267780	     -0.37014803	     -2.50527353	     -0.29329001	     -0.04803561	      1.17052601	     -0.39118065	     -0.47494481	     -1.78000313	     -0.33744545	     -0.16844719	      0.21321640	      0.04941725	     -0.30250861
     -0.00300000	      0.26936364	      0.04846779	     -0.01233459	      0.03297231	      0.94530962	     -0.85063382	      0.94506088	     -0.17194286	     -0.47243619	     -2.08867042	     -0.35425646	     -0.32844129	      1.83587693	      0.05035676	     -0.37365405	     -2.49428494	     -0.29726448	     -0.04741484	      1.16708771	     -0.39105498	     -0.47805266	     -1.78896248	     -0.34271983	     -0.17132990	      0.21363528	      0.04811035	     -0.30409221
      0.00100000	      0.27114388	      0.04035899	     -0.01224624	      0.04619492	      0.94612909	     -0.85096968	      0.94453030	     -0.16989908	     -0.47753954	     -2.06779628	     -0.35506629	     -0.32421236	      1.83287497	      0.05796588	     -0.37715169	     -2.48353371	     -0.30137298	     -0.04681148	      1.16372969	     -0.39098517	     -0.48115935	     -1.79803820	     -0.34801865	     -0.17419992	      0.21404020	      0.04676994	     -0.30542564
      0.00500000	      0.27305676	      0.03200934	     -0.01210019	      0.05936380	      0.94698262	     -0.85128280	      0.94366462	     -0.16756732	     -0.48291515	     -2.04796934	     -0.35616934	     -0.32030282	      1.83259571	      0.06494719	     -0.38058650	     -2.47487688	     -0.30670671	     -0.04636467	      1.16085339	     -0.39125046	     -0.48425905	     -1.80781204	     -0.35346408	     -0.17699384	      0.21436134	      0.04522846	     -0.30525809
      0.00900000	      0.27470435	      0.02385516	     -0.01200581	      0.07257900	      0.94815931	     -0.85161704	      0.94309215	     -0.16548688	     -0.48805340	     -2.02716502	     -0.35702106	     -0.31608611	      1.82994281	      0.07248841	     -0.38410508	     -2.46426528	     -0.31099324	     -0.04577824	      1.15701367	     -0.39084554	     -0.48737272	     -1.81618962	     -0.35861629	     -0.17993996	      0.21485003	      0.04408911	     -0.30809250
      0.01300000	      0.27613203	      0.01588948	     -0.01194933	      0.08583218	      0.94952212	     -0.85196508	      0.94275007	     -0.16360542	     -0.49300315	     -2.00573238	     -0.35766334	     -0.31169137	      1.82540496	      0.08044537	     -0.38762366	     -2.45239704	     -0.31440012	     -0.04508814	      1.15249326	     -0.38991703	     -0.49047592	     -1.82341528	     -0.36349623	     -0.18301173	      0.21547486	      0.04325240	     -0.31325169
      0.01700000	      0.27733980	      0.00816116	     -0.01193090	      0.09912534	      0.95043908	     -0.85232600	      0.94265233	     -0.16193270	     -0.49775045	     -1.98360160	     -0.35807524	     -0.30717446	      1.81919159	      0.08881387	     -0.39109338	     -2.43913254	     -0.31687151	     -0.04429297	      1.14731313	     -0.38844397	     -0.49353373	     -1.82962865	     -0.36809692	     -0.18621616	      0.21627073	      0.04271693	     -0.32079850
      0.02100000	      0.27832067	      0.00070511	     -0.01195051	      0.11246024	      0.95267610	     -0.85269878	      0.94280243	     -0.16047884	     -0.50228132	     -1.96084251	     -0.35824279	     -0.30257377	      1.81137251	      0.09758834	     -0.39447583	     -2.42440196	     -0.31835504	     -0.04339168	      1.14150118	     -0.38641590	     -0.49651127	     -1.83482974	     -0.37240439	     -0.18956370	      0.21726208	      0.04247852	     -0.33080273
      0.02500000	      0.27906069	     -0.00645772	     -0.01200804	      0.12583840	      0.95467441	     -0.85308230	      0.94319338	     -0.15925431	     -0.50658182	     -1.93766454	     -0.35815902	     -0.29791025	      1.80187792	      0.10676179	     -0.39774308	     -2.40820530	     -0.31880184	     -0.04238358	      1.13509233	     -0.38383281	     -0.49937361	     -1.83887890	     -0.37639771	     -0.19306832	      0.21846286	      0.04253018	     -0.34334117
      0.02900000	      0.27947957	     -0.01315978	     -0.01211276	      0.13927648	      0.95694586	     -0.85347782	      0.94390548	     -0.15832859	     -0.51058909	     -1.91378843	     -0.35775410	     -0.29327466	      1.79014931	      0.11644767	     -0.40073109	     -2.38991425	     -0.31781049	     -0.04123026	      1.12798535	     -0.38052366	     -0.50199858	     -1.84167143	     -0.37991629	     -0.19681031	      0.21999875	      0.04294906	     -0.35941216
      0.03300000	      0.27963665	     -0.01952674	     -0.01225204	      0.15276070	      0.96016901	     -0.85388066	      0.94485843	     -0.15761440	     -0.51439740	     -1.88959817	     -0.35709786	     -0.28868095	      1.77684990	      0.12649483	     -0.40344682	     -2.37026184	     -0.31567770	     -0.03997223	      1.12037572	     -0.37664903	     -0.50438270	     -1.84362620	     -0.38304741	     -0.20074079	      0.22182786	      0.04362974	     -0.37823728
      0.03700000	      0.27954590	     -0.02555162	     -0.01242441	      0.16629130	      0.96232233	     -0.85428966	      0.94602431	     -0.15709429	     -0.51801372	     -1.86509375	     -0.35618330	     -0.28417800	      1.76204951	      0.13688652	     -0.40584141	     -2.34910845	     -0.31238950	     -0.03861436	      1.11230531	     -0.37222288	     -0.50649804	     -1.84467339	     -0.38576314	     -0.20486675	      0.22398508	      0.04456244	     -0.39988635
      0.04100000	      0.27921428	     -0.03123790	     -0.01262861	      0.17986820	      0.96515289	     -0.85470364	      0.94737868	     -0.15674802	     -0.52144853	     -1.84031007	     -0.35501393	     -0.27979373	      1.74576907	      0.14760110	     -0.40786250	     -2.32648899	     -0.30793193	     -0.03716295	      1.10379858	     -0.36724520	     -0.50831318	     -1.84484793	     -0.38803207	     -0.20919516	      0.22650534	      0.04573670	     -0.42442219
      0.04500000	      0.27864182	     -0.03659955	     -0.01286360	      0.19349100	      0.96804005	     -0.85512140	      0.94890061	     -0.15655254	     -0.52471579	     -1.81531695	     -0.35360371	     -0.27553513	      1.72798068	      0.15861203	     -0.40945424	     -2.30261288	     -0.30229103	     -0.03562566	      1.09486249	     -0.36170203	     -0.50979322	     -1.84428942	     -0.38981929	     -0.21373302	      0.22942353	      0.04714134	     -0.45190065
      0.04900000	      0.27777613	     -0.04155629	     -0.01313545	      0.20717348	      0.97110965	     -0.85554172	      0.95059009	     -0.15650926	     -0.52781549	     -1.79004459	     -0.35184441	     -0.27149993	      1.70829337	      0.16996086	     -0.41034785	     -2.27720089	     -0.29507234	     -0.03399203	      1.08542375	     -0.35543281	     -0.51078457	     -1.84261390	     -0.39093630	     -0.21856409	      0.23294211	      0.04883641	     -0.48337243
      0.05300000	      0.27670101	     -0.04627217	     -0.01343150	      0.22089880	      0.97585787	     -0.85596204	      0.95233193	     -0.15653404	     -0.53083142	     -1.76466750	     -0.34984427	     -0.26762181	      1.68725517	      0.18150447	     -0.41065503	     -2.25063698	     -0.28669127	     -0.03230290	      1.07564991	     -0.34865046	     -0.51139892	     -1.84031007	     -0.39152971	     -0.22361507	      0.23696335	      0.05073567	     -0.51781825
      0.05700000	      0.27543739	     -0.05076116	     -0.01374817	      0.23466560	      0.97893171	     -0.85638084	      0.95410518	     -0.15659618	     -0.53378452	     -1.73925551	     -0.34760326	     -0.26392171	      1.66487306	      0.19320097	     -0.41031993	     -2.22306077	     -0.27715479	     -0.03056735	      1.06559681	     -0.34138291	     -0.51161534	     -1.83737792	     -0.39160651	     -0.22887201	      0.24152913	      0.05282937	     -0.55518924
      0.06100000	      0.27400273	     -0.05504070	     -0.01408261	      0.24847246	      0.98224054	     -0.85679672	      0.95588542	     -0.15667192	     -0.53669573	     -1.71383653	     -0.34512490	     -0.26041011	      1.64117498	      0.20500986	     -0.40929018	     -2.19461191	     -0.26648734	     -0.02879619	      1.05532729	     -0.33367205	     -0.51142336	     -1.83392216	     -0.39117366	     -0.23432092	      0.24667087	      0.05510772	     -0.59540860
